<svg width="66" height="66" viewBox="0 0 66 66" fill="none" xmlns="http://www.w3.org/2000/svg">
<mask id="path-2-outside-1_366_94" maskUnits="userSpaceOnUse" x="12.4099" y="20.9661" width="30" height="34" fill="black">
<rect fill="white" x="12.4099" y="20.9661" width="30" height="34"/>
<path d="M41.7239 33.931H34.0535C33.9513 33.1435 33.7416 32.4327 33.4245 31.7986C33.1075 31.1645 32.6882 30.6225 32.1666 30.1725C31.645 29.7225 31.0263 29.3798 30.3104 29.1446C29.6047 28.8992 28.8223 28.7764 27.9632 28.7764C26.4394 28.7764 25.1252 29.1497 24.0206 29.8963C22.9263 30.6429 22.0826 31.7219 21.4894 33.1332C20.9064 34.5446 20.615 36.2525 20.615 38.2571C20.615 40.3434 20.9116 42.0923 21.5047 43.5036C22.1081 44.9048 22.9519 45.9633 24.036 46.6792C25.1303 47.3849 26.424 47.7377 27.9172 47.7377C28.7558 47.7377 29.5178 47.6303 30.203 47.4155C30.8984 47.2008 31.5069 46.8888 32.0285 46.4797C32.5604 46.0604 32.995 45.5542 33.3325 44.961C33.6802 44.3576 33.9206 43.6775 34.0535 42.9207L41.7239 42.9667C41.591 44.3576 41.187 45.728 40.512 47.078C39.8472 48.428 38.9319 49.6604 37.766 50.7752C36.6001 51.8797 35.1785 52.7593 33.5013 53.4138C31.8342 54.0683 29.9217 54.3956 27.7638 54.3956C24.9206 54.3956 22.374 53.7717 20.1241 52.524C17.8843 51.2661 16.115 49.4354 14.8161 47.032C13.5173 44.6286 12.8679 41.7036 12.8679 38.2571C12.8679 34.8003 13.5275 31.8702 14.8468 29.4668C16.1661 27.0634 17.9508 25.2378 20.2008 23.9901C22.4508 22.7424 24.9718 22.1185 27.7638 22.1185C29.666 22.1185 31.4251 22.3844 33.041 22.9162C34.6569 23.4378 36.0785 24.2049 37.3058 25.2174C38.533 26.2196 39.5302 27.452 40.2972 28.9145C41.0643 30.377 41.5398 32.0491 41.7239 33.931Z"/>
</mask>
<path d="M41.7239 33.931H34.0535C33.9513 33.1435 33.7416 32.4327 33.4245 31.7986C33.1075 31.1645 32.6882 30.6225 32.1666 30.1725C31.645 29.7225 31.0263 29.3798 30.3104 29.1446C29.6047 28.8992 28.8223 28.7764 27.9632 28.7764C26.4394 28.7764 25.1252 29.1497 24.0206 29.8963C22.9263 30.6429 22.0826 31.7219 21.4894 33.1332C20.9064 34.5446 20.615 36.2525 20.615 38.2571C20.615 40.3434 20.9116 42.0923 21.5047 43.5036C22.1081 44.9048 22.9519 45.9633 24.036 46.6792C25.1303 47.3849 26.424 47.7377 27.9172 47.7377C28.7558 47.7377 29.5178 47.6303 30.203 47.4155C30.8984 47.2008 31.5069 46.8888 32.0285 46.4797C32.5604 46.0604 32.995 45.5542 33.3325 44.961C33.6802 44.3576 33.9206 43.6775 34.0535 42.9207L41.7239 42.9667C41.591 44.3576 41.187 45.728 40.512 47.078C39.8472 48.428 38.9319 49.6604 37.766 50.7752C36.6001 51.8797 35.1785 52.7593 33.5013 53.4138C31.8342 54.0683 29.9217 54.3956 27.7638 54.3956C24.9206 54.3956 22.374 53.7717 20.1241 52.524C17.8843 51.2661 16.115 49.4354 14.8161 47.032C13.5173 44.6286 12.8679 41.7036 12.8679 38.2571C12.8679 34.8003 13.5275 31.8702 14.8468 29.4668C16.1661 27.0634 17.9508 25.2378 20.2008 23.9901C22.4508 22.7424 24.9718 22.1185 27.7638 22.1185C29.666 22.1185 31.4251 22.3844 33.041 22.9162C34.6569 23.4378 36.0785 24.2049 37.3058 25.2174C38.533 26.2196 39.5302 27.452 40.2972 28.9145C41.0643 30.377 41.5398 32.0491 41.7239 33.931Z" fill="white"/>
<path d="M41.7239 33.931V34.201H42.0216L41.9926 33.9047L41.7239 33.931ZM34.0535 33.931L33.7858 33.9657L33.8163 34.201H34.0535V33.931ZM33.4245 31.7986L33.1831 31.9193V31.9193L33.4245 31.7986ZM32.1666 30.1725L32.343 29.968V29.968L32.1666 30.1725ZM30.3104 29.1446L30.2217 29.3997L30.2261 29.4011L30.3104 29.1446ZM24.0206 29.8963L23.8694 29.6726L23.8685 29.6733L24.0206 29.8963ZM21.4894 33.1332L21.2405 33.0286L21.2398 33.0302L21.4894 33.1332ZM21.5047 43.5036L21.2558 43.6082L21.2568 43.6104L21.5047 43.5036ZM24.036 46.6792L23.8872 46.9045L23.8896 46.9061L24.036 46.6792ZM30.203 47.4155L30.1233 47.1576L30.1222 47.1579L30.203 47.4155ZM32.0285 46.4797L32.1952 46.6922L32.1957 46.6918L32.0285 46.4797ZM33.3325 44.961L33.0986 44.8262L33.0978 44.8275L33.3325 44.961ZM34.0535 42.9207L34.0551 42.6507L33.8271 42.6493L33.7876 42.874L34.0535 42.9207ZM41.7239 42.9667L41.9927 42.9924L42.0208 42.6985L41.7256 42.6967L41.7239 42.9667ZM40.512 47.078L40.2705 46.9573L40.2698 46.9588L40.512 47.078ZM37.766 50.7752L37.9517 50.9712L37.9526 50.9703L37.766 50.7752ZM33.5013 53.4138L33.4031 53.1623L33.4026 53.1625L33.5013 53.4138ZM20.1241 52.524L19.9918 52.7594L19.9931 52.7601L20.1241 52.524ZM14.8161 47.032L15.0537 46.9036L14.8161 47.032ZM14.8468 29.4668L14.6101 29.3369V29.3369L14.8468 29.4668ZM33.041 22.9162L32.9566 23.1727L32.9581 23.1732L33.041 22.9162ZM37.3058 25.2174L37.134 25.4256L37.135 25.4265L37.3058 25.2174ZM41.7239 33.661H34.0535V34.201H41.7239V33.661ZM34.3213 33.8962C34.2156 33.0823 33.9981 32.3419 33.666 31.6778L33.1831 31.9193C33.4851 32.5234 33.6869 33.2046 33.7858 33.9657L34.3213 33.8962ZM33.666 31.6778C33.3335 31.0128 32.8924 30.442 32.343 29.968L31.9902 30.3769C32.484 30.8029 32.8815 31.3162 33.1831 31.9193L33.666 31.6778ZM32.343 29.968C31.792 29.4927 31.1412 29.1334 30.3946 28.8881L30.2261 29.4011C30.9114 29.6263 31.498 29.9523 31.9902 30.3769L32.343 29.968ZM30.3991 28.8896C29.6609 28.6329 28.8481 28.5064 27.9632 28.5064V29.0464C28.7966 29.0464 29.5484 29.1655 30.2217 29.3996L30.3991 28.8896ZM27.9632 28.5064C26.3934 28.5064 25.0248 28.8917 23.8694 29.6726L24.1718 30.12C25.2256 29.4078 26.4853 29.0464 27.9632 29.0464V28.5064ZM23.8685 29.6733C22.7248 30.4535 21.8506 31.5769 21.2405 33.0286L21.7383 33.2378C22.3145 31.8668 23.1278 30.8323 24.1728 30.1194L23.8685 29.6733ZM21.2398 33.0302C20.6399 34.4827 20.345 36.2277 20.345 38.2571H20.885C20.885 36.2774 21.173 34.6065 21.7389 33.2363L21.2398 33.0302ZM20.345 38.2571C20.345 40.3671 20.6447 42.1541 21.2558 43.6082L21.7536 43.399C21.1784 42.0304 20.885 40.3197 20.885 38.2571H20.345ZM21.2568 43.6104C21.8773 45.0513 22.752 46.1548 23.8872 46.9045L24.1848 46.4539C23.1518 45.7717 22.339 44.7582 21.7527 43.3968L21.2568 43.6104ZM23.8896 46.9061C25.0337 47.6438 26.3799 48.0077 27.9172 48.0077V47.4677C26.4681 47.4677 25.2269 47.1259 24.1823 46.4523L23.8896 46.9061ZM27.9172 48.0077C28.7787 48.0077 29.5684 47.8974 30.2837 47.6732L30.1222 47.1579C29.4671 47.3632 28.7329 47.4677 27.9172 47.4677V48.0077ZM30.2826 47.6735C31.0065 47.45 31.6452 47.1236 32.1952 46.6922L31.8619 46.2673C31.3687 46.6541 30.7903 46.9516 30.1233 47.1576L30.2826 47.6735ZM32.1957 46.6918C32.7551 46.2507 33.2126 45.7177 33.5672 45.0945L33.0978 44.8275C32.7774 45.3906 32.3656 45.8701 31.8614 46.2677L32.1957 46.6918ZM33.5664 45.0958C33.9314 44.4625 34.1816 43.752 34.3194 42.9674L33.7876 42.874C33.6595 43.603 33.429 44.2527 33.0986 44.8262L33.5664 45.0958ZM34.0519 43.1907L41.7223 43.2367L41.7256 42.6967L34.0551 42.6507L34.0519 43.1907ZM41.4552 42.941C41.3256 44.2962 40.9318 45.6346 40.2705 46.9573L40.7535 47.1988C41.4422 45.8215 41.8563 44.419 41.9927 42.9924L41.4552 42.941ZM40.2698 46.9588C39.62 48.2784 38.7241 49.4855 37.5794 50.58L37.9526 50.9703C39.1397 49.8353 40.0745 48.5776 40.7542 47.1973L40.2698 46.9588ZM37.5803 50.5792C36.4426 51.657 35.0518 52.5189 33.4031 53.1623L33.5994 53.6653C35.3052 52.9996 36.7576 52.1024 37.9517 50.9712L37.5803 50.5792ZM33.4026 53.1625C31.7727 53.8024 29.8947 54.1256 27.7638 54.1256V54.6656C29.9488 54.6656 31.8957 54.3342 33.5999 53.6651L33.4026 53.1625ZM27.7638 54.1256C24.9615 54.1256 22.4608 53.5111 20.255 52.2879L19.9931 52.7601C22.2873 54.0324 24.8797 54.6656 27.7638 54.6656V54.1256ZM20.2563 52.2886C18.0639 51.0573 16.3299 49.2651 15.0537 46.9036L14.5786 47.1604C15.9001 49.6057 17.7047 51.4749 19.9918 52.7594L20.2563 52.2886ZM15.0537 46.9036C13.781 44.5487 13.1379 41.6703 13.1379 38.2571H12.5979C12.5979 41.737 13.2536 44.7086 14.5786 47.1604L15.0537 46.9036ZM13.1379 38.2571C13.1379 34.8341 13.791 31.9512 15.0835 29.5967L14.6101 29.3369C13.264 31.7891 12.5979 34.7665 12.5979 38.2571H13.1379ZM15.0835 29.5967C16.38 27.2349 18.1292 25.4476 20.3317 24.2262L20.0698 23.754C17.7723 25.0281 15.9523 26.8919 14.6101 29.3369L15.0835 29.5967ZM20.3317 24.2262C22.5383 23.0026 25.0136 22.3885 27.7638 22.3885V21.8485C24.93 21.8485 22.3632 22.4822 20.0698 23.754L20.3317 24.2262ZM27.7638 22.3885C29.6407 22.3885 31.371 22.6509 32.9566 23.1727L33.1254 22.6598C31.4793 22.118 29.6914 21.8485 27.7638 21.8485V22.3885ZM32.9581 23.1732C34.5438 23.685 35.9347 24.4363 37.134 25.4256L37.4776 25.0091C36.2223 23.9735 34.7701 23.1906 33.124 22.6593L32.9581 23.1732ZM37.135 25.4265C38.3329 26.4048 39.3073 27.6083 40.0581 29.0399L40.5363 28.7891C39.7531 27.2958 38.7332 26.0345 37.4766 25.0082L37.135 25.4265ZM40.0581 29.0399C40.8068 30.4674 41.274 32.1051 41.4552 33.9572L41.9926 33.9047C41.8057 31.9932 41.3217 30.2866 40.5363 28.7891L40.0581 29.0399Z" fill="white" mask="url(#path-2-outside-1_366_94)"/>
<path d="M45.0897 30.0377C44.8798 31.1074 44.7657 32.1144 44.7055 32.9634C44.5963 32.1064 44.4267 31.088 44.1635 30.0071C43.4453 27.0574 42.0235 23.6141 39.2 21.7341C37.5551 20.6388 35.4154 19.8637 33.6935 19.3627C32.8313 19.1119 32.0714 18.9292 31.5269 18.8091C31.4347 18.7888 31.3486 18.7702 31.2693 18.7535C31.3547 18.736 31.4479 18.7165 31.5481 18.695C32.1049 18.5753 32.8797 18.3918 33.752 18.1361C35.4934 17.6258 37.6356 16.8246 39.2049 15.6633C41.3782 14.0549 42.5932 10.9583 43.2667 8.29154C43.6045 6.95398 43.8081 5.71615 43.9272 4.81284C43.9586 4.57479 43.9842 4.3599 44.0048 4.17245C44.0464 4.36413 44.0963 4.58499 44.1549 4.83036C44.3713 5.73626 44.7065 6.97704 45.1819 8.31625C46.13 10.9873 47.6453 14.0789 49.9104 15.6651C51.3715 16.6883 53.2103 17.4889 54.6791 18.033C55.4144 18.3053 56.0588 18.5141 56.5196 18.6547C56.6506 18.6948 56.7668 18.7293 56.8661 18.7582C56.7499 18.7958 56.6104 18.8416 56.4512 18.8947C55.9549 19.0603 55.2678 19.2978 54.5043 19.5849C52.9803 20.158 51.142 20.9329 49.9138 21.7334C46.9759 23.6482 45.6673 27.0942 45.0897 30.0377Z" fill="white" stroke="white" stroke-width="0.242999"/>
</svg>
