<svg width="162" height="43" viewBox="0 0 162 43" fill="none" xmlns="http://www.w3.org/2000/svg">
<path d="M148.194 42.5966C145.183 42.5966 142.589 42.0114 140.41 40.841C138.244 39.6582 136.573 37.9649 135.398 35.7611C134.235 33.5449 133.654 30.8929 133.654 27.8051C133.654 24.8418 134.241 22.252 135.416 20.0358C136.591 17.8195 138.25 16.0951 140.392 14.8625C142.533 13.6299 145.061 13.0135 147.974 13.0135C150.103 13.0135 152.031 13.3497 153.757 14.0221C155.483 14.6944 156.957 15.6718 158.181 16.9542C159.405 18.2242 160.348 19.7681 161.009 21.5859C161.67 23.4037 162 25.4519 162 27.7304V30.1209H136.812V24.4434H152.674C152.661 23.6216 152.453 22.8995 152.049 22.2769C151.658 21.6419 151.125 21.1501 150.452 20.8015C149.791 20.4404 149.039 20.2599 148.194 20.2599C147.374 20.2599 146.621 20.4404 145.936 20.8015C145.251 21.1501 144.7 21.6357 144.284 22.2582C143.88 22.8808 143.666 23.6092 143.641 24.4434V30.5691C143.641 31.4905 143.831 32.3123 144.21 33.0344C144.59 33.7565 145.134 34.323 145.844 34.7339C146.554 35.1448 147.411 35.3502 148.414 35.3502C149.112 35.3502 149.749 35.2506 150.324 35.0514C150.911 34.8522 151.413 34.5658 151.829 34.1923C152.245 33.8063 152.551 33.3457 152.747 32.8103H162C161.682 34.8024 160.929 36.5331 159.742 38.0023C158.555 39.459 156.982 40.592 155.024 41.4013C153.078 42.1982 150.801 42.5966 148.194 42.5966Z" fill="black"/>
<path d="M113.119 42.4471C111.112 42.4471 109.264 41.9117 107.575 40.841C105.898 39.7702 104.552 38.1454 103.536 35.9665C102.532 33.7876 102.031 31.0422 102.031 27.7303C102.031 24.269 102.557 21.4551 103.609 19.2887C104.674 17.1223 106.045 15.5348 107.722 14.5263C109.411 13.5178 111.185 13.0135 113.046 13.0135C114.441 13.0135 115.665 13.2625 116.718 13.7605C117.77 14.2461 118.651 14.8998 119.361 15.7215C120.071 16.5308 120.61 17.4211 120.977 18.3922H121.124V3.82483L131.258 3.82483V42.0736H121.197V37.3672H120.977C120.585 38.3384 120.022 39.2099 119.288 39.9819C118.566 40.7414 117.684 41.3452 116.644 41.7935C115.616 42.2292 114.441 42.4471 113.119 42.4471ZM116.864 34.5284C117.795 34.5284 118.59 34.2545 119.251 33.7067C119.924 33.1464 120.438 32.362 120.793 31.3535C121.16 30.3325 121.344 29.1248 121.344 27.7303C121.344 26.3109 121.16 25.097 120.793 24.0885C120.438 23.0675 119.924 22.2893 119.251 21.7539C118.59 21.2061 117.795 20.9322 116.864 20.9322C115.934 20.9322 115.139 21.2061 114.478 21.7539C113.829 22.2893 113.327 23.0675 112.972 24.0885C112.63 25.097 112.458 26.3109 112.458 27.7303C112.458 29.1497 112.63 30.3699 112.972 31.3908C113.327 32.3994 113.829 33.1775 114.478 33.7254C115.139 34.2607 115.934 34.5284 116.864 34.5284Z" fill="black"/>
<path d="M89.1652 42.0737V13.3871H99.2992V42.0737H89.1652Z" fill="black"/>
<path d="M85.5527 3.82483V42.0736H75.4186V3.82483L85.5527 3.82483Z" fill="black"/>
<path d="M71.8061 3.82483V42.0736H61.6721V3.82483L71.8061 3.82483Z" fill="black"/>
<path d="M44.497 42.5966C41.4372 42.5966 38.818 41.9803 36.6394 40.7477C34.4608 39.5026 32.7902 37.7719 31.6275 35.5557C30.4647 33.327 29.8834 30.7435 29.8834 27.8051C29.8834 24.8667 30.4647 22.2894 31.6275 20.0731C32.7902 17.8444 34.4608 16.1138 36.6394 14.8812C38.818 13.6361 41.4372 13.0135 44.497 13.0135C47.5568 13.0135 50.176 13.6361 52.3546 14.8812C54.5332 16.1138 56.2038 17.8444 57.3666 20.0731C58.5293 22.2894 59.1106 24.8667 59.1106 27.8051C59.1106 30.7435 58.5293 33.327 57.3666 35.5557C56.2038 37.7719 54.5332 39.5026 52.3546 40.7477C50.176 41.9803 47.5568 42.5966 44.497 42.5966ZM44.5704 34.9767C45.4272 34.9767 46.1677 34.6841 46.7919 34.0989C47.4161 33.5138 47.8995 32.6795 48.2422 31.5963C48.5849 30.5131 48.7563 29.2245 48.7563 27.7304C48.7563 26.2238 48.5849 24.9352 48.2422 23.8644C47.8995 22.7812 47.4161 21.947 46.7919 21.3618C46.1677 20.7766 45.4272 20.484 44.5704 20.484C43.6647 20.484 42.8875 20.7766 42.2389 21.3618C41.5902 21.947 41.0945 22.7812 40.7518 23.8644C40.4091 24.9352 40.2378 26.2238 40.2378 27.7304C40.2378 29.2245 40.4091 30.5131 40.7518 31.5963C41.0945 32.6795 41.5902 33.5138 42.2389 34.0989C42.8875 34.6841 43.6647 34.9767 44.5704 34.9767Z" fill="black"/>
<path d="M14.6956 42.5966C11.6358 42.5966 9.01661 41.9803 6.83803 40.7477C4.65944 39.5026 2.98879 37.7719 1.82606 35.5557C0.663334 33.327 0.0819702 30.7435 0.0819702 27.8051C0.0819702 24.8667 0.663334 22.2894 1.82606 20.0731C2.98879 17.8444 4.65944 16.1138 6.83803 14.8812C9.01661 13.6361 11.6358 13.0135 14.6956 13.0135C17.4617 13.0135 19.8544 13.524 21.8739 14.545C23.9056 15.5535 25.4784 16.9853 26.5921 18.8405C27.7059 20.6832 28.2689 22.8497 28.2812 25.3398H18.8814C18.7468 23.8333 18.3184 22.6878 17.5963 21.9034C16.8864 21.1066 15.9685 20.7081 14.8425 20.7081C13.9613 20.7081 13.1902 20.9696 12.5293 21.4925C11.8683 22.003 11.3543 22.7812 10.9871 23.827C10.6199 24.8605 10.4364 26.1616 10.4364 27.7304C10.4364 29.2992 10.6199 30.6065 10.9871 31.6524C11.3543 32.6858 11.8683 33.4639 12.5293 33.9869C13.1902 34.4974 13.9613 34.7526 14.8425 34.7526C15.5891 34.7526 16.25 34.5783 16.8252 34.2297C17.4005 33.8686 17.8656 33.3457 18.2205 32.6609C18.5877 31.9636 18.808 31.117 18.8814 30.1209H28.2812C28.2444 32.6484 27.6753 34.8522 26.5738 36.7323C25.4723 38.5999 23.9118 40.0442 21.8923 41.0651C19.885 42.0861 17.4862 42.5966 14.6956 42.5966Z" fill="black"/>
<path d="M101.937 6.13574C101.937 6.13574 97.2695 6.85227 95.6682 8.90679C94.6288 10.2403 94.0362 12.2715 94.0362 12.2715C94.0362 12.2715 93.2683 10.0264 92.4561 8.90679C90.522 6.2406 85.5657 6.13574 85.5657 6.13574C85.5657 6.13574 90.5565 6.47683 92.4561 3.91359C93.5677 2.41359 94.0362 0 94.0362 0C94.0362 0 94.4915 2.48506 95.6682 3.91359C97.2884 5.88065 101.937 6.13574 101.937 6.13574Z" fill="black"/>
</svg>
