<svg width="98" height="117" viewBox="0 0 98 117" fill="none" xmlns="http://www.w3.org/2000/svg">
<path d="M46.7201 4.849C46.7201 4.849 52.1761 36.7798 67.82 47.7351C77.9735 54.8455 93.4401 58.8996 93.4401 58.8996C93.4401 58.8996 76.3453 64.1534 67.82 69.7098C47.5185 82.9412 46.7201 116.849 46.7201 116.849C46.7201 116.849 49.3173 82.7055 29.7998 69.7098C18.3782 62.1047 0.00012207 58.8996 0.00012207 58.8996C0.00012207 58.8996 18.9224 55.7849 29.7998 47.7351C44.7777 36.6506 46.7201 4.849 46.7201 4.849Z" fill="black"/>
<path d="M78.8482 0.369019C78.8482 0.369019 81.0305 13.1413 87.2881 17.5234C91.3495 20.3676 97.5362 21.9893 97.5362 21.9893C97.5362 21.9893 90.6982 24.0908 87.2881 26.3133C79.1675 31.6059 78.8482 45.169 78.8482 45.169C78.8482 45.169 79.887 31.5116 72.08 26.3133C67.5114 23.2713 60.1602 21.9893 60.1602 21.9893C60.1602 21.9893 67.729 20.7434 72.08 17.5234C78.0712 13.0897 78.8482 0.369019 78.8482 0.369019Z" fill="black"/>
<path d="M16.4865 15.809C16.4865 15.809 17.6322 22.5144 20.9175 24.815C23.0497 26.3082 26.2977 27.1596 26.2977 27.1596C26.2977 27.1596 22.7078 28.2629 20.9175 29.4297C16.6542 32.2083 16.4865 39.329 16.4865 39.329C16.4865 39.329 17.0319 32.1588 12.9332 29.4297C10.5347 27.8327 6.67529 27.1596 6.67529 27.1596C6.67529 27.1596 10.649 26.5055 12.9332 24.815C16.0786 22.4873 16.4865 15.809 16.4865 15.809Z" fill="black"/>
</svg>
