<svg width="1920" height="1080" viewBox="0 0 1920 1080" fill="none" xmlns="http://www.w3.org/2000/svg">
<g clip-path="url(#clip0_21_645)">
<rect width="1920" height="1080" fill="white"/>
<path d="M0 24C60.5013 25.92 107.691 58.848 164.096 66.096C220.501 73.344 260.864 116.688 315.733 120C314.027 118.08 315.733 115.2 315.733 115.2C230.144 77.184 136.96 42.864 59.7333 0H0V24Z" stroke="#0A0A0A" stroke-width="0.3"/>
<path d="M315.733 115.2C331.093 122.016 349.952 128.976 358.4 139.2C339.456 139.44 324.352 128.208 315.733 120C260.864 116.688 220.501 73.344 164.096 66.096C107.691 58.848 60.5013 25.92 0 24V43.2C136.192 76.464 268.885 107.856 384 163.2C402.603 172.128 418.56 182.64 435.2 192C499.541 222.912 555.435 269.04 648.533 264C518.912 295.392 435.2 211.728 339.2 169.2C243.2 126.672 112.384 94.32 0 67.2V100.8C120.149 140.208 260.352 134.448 347.733 212.4C435.115 290.352 621.739 277.296 759.552 287.952C897.365 298.656 1017.69 352.992 1144.15 378.816C1270.53 404.688 1371.39 461.904 1459.2 513.6C1357.82 474.24 1263.02 433.584 1137.66 420.864C1012.39 408.096 950.357 326.4 817.323 322.656C684.288 318.912 525.568 312.576 400.469 283.536C275.285 254.496 127.061 257.088 0 230.4V254.4C17.92 261.024 43.1787 260.544 59.7333 268.8C174.336 273.648 328.875 279.12 401.067 331.2C286.208 314.016 173.909 292.56 59.7333 273.6C40.96 269.472 21.0773 264.384 0 264V278.4C92.5013 290.592 159.061 340.608 257.877 344.544C356.779 348.432 468.651 364.656 494.763 422.496C520.789 480.384 621.227 493.536 647.851 547.584C674.56 601.584 761.771 626.16 838.4 656.4C914.944 686.64 979.797 710.736 1030.57 759.504C1081.34 808.272 1100.89 871.92 1103.62 929.616C1106.35 987.312 1158.83 1034.59 1228.8 1075.2C1098.5 1042.27 1020.33 966.192 1015.47 888C1010.69 809.808 972.885 716.592 827.733 686.4C927.659 811.392 831.573 991.296 1049.6 1080H1092.27C852.821 1005.17 987.477 837.168 878.933 724.8C1042.77 821.088 891.904 1038.48 1186.13 1080H1271.47C1151.57 963.696 1175.98 819.648 1041.07 705.6C1177.69 748.896 1365.85 786.528 1435.73 877.2C1505.71 967.824 1615.1 1041.46 1783.47 1080H1843.2C1638.4 1018.94 1617.24 888.144 1485.48 796.416C1353.73 704.688 1205.85 632.448 1073.07 538.8C940.288 445.152 745.216 379.248 554.667 340.8C727.723 330.96 895.061 381.408 1000.53 454.8C1106.01 528.192 1184.77 586.848 1299.2 651.6C1413.55 716.4 1530.79 769.584 1589.85 852.912C1648.81 936.288 1724.25 1025.52 1877.33 1060.8C1680.47 966.432 1641.56 822.624 1484.8 715.2C1664.94 806.208 1749.5 951.312 1920 1046.4V1008C1862.31 951.6 1793.37 894.432 1700.27 853.2C1607.25 811.92 1605.89 722.784 1492.65 691.584C1379.41 660.384 1293.91 621.888 1222.23 565.296C1150.55 508.704 1065.13 463.872 1006.93 403.2C1126.23 494.112 1363.97 500.352 1525.33 558C1686.7 615.696 1800.79 706.608 1920 787.2V753.6C1857.88 723.696 1820.59 681.984 1766.4 648C1833.13 654.144 1886.63 678.768 1920 710.4V652.8C1809.83 620.928 1669.46 607.824 1576.53 558C1483.61 508.128 1420.54 445.92 1363.2 385.2C1305.77 324.528 1213.44 263.04 1090.39 250.656C967.253 238.32 820.053 215.568 744.533 152.4C669.013 89.28 532.821 76.56 494.933 0H401.067C455.765 85.44 610.731 95.136 699.051 168.384C787.285 241.632 960.853 254.592 1094.14 282.144C1227.52 309.648 1321.81 390.096 1399.47 451.2C1329.15 394.08 1236.48 373.536 1141.5 332.304C1046.53 291.072 902.656 278.736 793.003 259.536C683.264 240.384 655.189 155.952 540.245 137.712C425.216 119.52 382.635 42.24 307.2 0H204.8C411.051 79.872 576.597 203.328 793.6 278.4C675.755 243.024 519.168 224.592 433.067 159.6C347.051 94.56 243.627 49.872 136.533 0H59.7333C136.96 42.864 230.144 77.184 315.733 115.2ZM1134.93 355.2C1058.47 339.456 963.584 334.8 913.067 292.8C995.413 299.568 1083.39 314.4 1134.93 355.2ZM708.267 489.6C729.856 501.744 754.688 516.624 776.533 528C951.979 605.904 1122.47 664.272 1311.49 731.088C1500.59 797.856 1552.3 943.152 1681.07 1032C1540.69 986.496 1531.9 891.888 1418.67 829.2C1305.34 766.56 1203.71 708.768 1056.17 677.904C908.629 647.04 767.061 606.528 693.163 526.896C619.264 447.264 508.843 396.96 426.667 321.6C574.123 342.336 615.168 433.44 708.267 489.6ZM1237.33 676.8C1118.12 650.736 1022.29 604.464 928 553.2C833.707 501.888 710.4 469.632 674.133 393.6C759.211 447.696 916.395 454.08 975.36 521.76C1034.41 589.392 1151.83 627.312 1237.33 676.8Z" stroke="white" stroke-width="0.3"/>
<path d="M204.8 0H136.533C243.627 49.872 347.051 94.56 433.067 159.6C519.168 224.592 675.755 243.024 793.6 278.4C576.597 203.328 411.051 79.872 204.8 0Z" stroke="#040404" stroke-width="0.3"/>
<path d="M401.067 0H307.2C382.635 42.24 425.216 119.52 540.245 137.712C655.189 155.952 683.264 240.384 793.003 259.536C902.656 278.736 1046.53 291.072 1141.5 332.304C1236.48 373.536 1329.15 394.08 1399.47 451.2C1321.81 390.096 1227.52 309.648 1094.14 282.144C960.853 254.592 787.285 241.632 699.051 168.384C610.731 95.136 455.765 85.44 401.067 0Z" stroke="#030303" stroke-width="0.3"/>
<path d="M1920 652.8V633.6C1801.13 590.208 1654.19 567.936 1559.47 500.4C1464.75 432.864 1421.23 360.864 1331.2 292.8C1446.23 299.28 1508.27 350.592 1597.7 387.696C1687.13 424.8 1823.57 421.152 1920 451.2V417.6C1711.1 407.808 1593.51 319.68 1406.12 279.456C1218.65 239.28 998.571 246 836.267 168C805.547 153.264 776.789 137.04 750.933 120C687.957 78.528 593.237 59.808 580.267 0H494.933C532.821 76.56 669.013 89.28 744.533 152.4C820.053 215.568 967.253 238.32 1090.39 250.656C1213.44 263.04 1305.77 324.528 1363.2 385.2C1420.54 445.92 1483.61 508.128 1576.53 558C1669.46 607.824 1809.83 620.928 1920 652.8Z" stroke="#040404" stroke-width="0.3"/>
<path d="M750.933 120C778.667 135.6 808.875 152.592 836.267 168C998.571 246 1218.65 239.28 1406.12 279.456C1593.51 319.68 1711.1 407.808 1920 417.6V388.8C1833.13 340.704 1696.26 361.152 1606.4 320.4C1516.54 279.6 1409.37 257.232 1296.98 249.648C1184.6 242.064 1078.36 221.472 1006.93 168C1104.73 196.608 1215.32 211.488 1322.67 220.8C1430.02 230.112 1517.74 257.952 1610.67 289.2C1703.59 320.496 1826.3 315.456 1920 350.4V297.6C1782.7 260.304 1600 286.656 1475.58 230.784C1351.25 174.864 1170.86 199.2 1040.38 158.784C909.995 118.32 817.92 74.88 750.933 0H699.733C790.699 79.92 919.552 150 1041.07 216C988.416 211.056 944.811 192.048 904.533 172.8C885.589 163.68 869.12 154.416 853.333 144C780.288 95.904 670.379 62.256 640 0H580.267C593.237 59.808 687.957 78.528 750.933 120ZM1902.93 326.4C1849.26 301.776 1775.96 307.824 1715.2 292.8C1770.41 285.504 1888.85 285.024 1902.93 326.4Z" stroke="#EBEBEB" stroke-width="0.3"/>
<path d="M853.333 144C869.717 153.216 888.491 163.776 904.533 172.8C944.811 192.048 988.416 211.056 1041.07 216C919.552 150 790.699 79.92 699.733 0H640C670.379 62.256 780.288 95.904 853.333 144Z" stroke="#030303" stroke-width="0.3"/>
<path d="M1920 297.6V273.6C1801.22 253.632 1710.51 189.792 1585.32 178.656C1460.14 167.52 1333.33 127.248 1288.53 57.6C1452.54 165.6 1716.65 159.264 1920 225.6V196.8C1811.63 144.672 1666.99 122.736 1527.47 120C1387.95 117.264 1318.14 36.912 1211.73 0H1100.8C1209.09 27.072 1268.22 83.472 1339.73 134.4C1351.77 141.744 1369.77 151.872 1382.4 158.4C1503.4 212.112 1657.69 202.032 1783.47 249.6C1446.66 278.4 1243.05 82.896 981.333 0H921.6C1017.34 63.36 1169.58 90.096 1254.4 158.4C1156.1 144.528 1042.43 148.368 964.267 105.6C947.541 98.16 934.912 90.384 921.6 81.6C880.555 54.576 841.216 27.456 802.133 0H750.933C817.92 74.88 909.995 118.32 1040.38 158.784C1170.86 199.2 1351.25 174.864 1475.58 230.784C1600 286.656 1782.7 260.304 1920 297.6Z" stroke="#030303" stroke-width="0.3"/>
<path d="M921.6 81.6C934.741 88.992 951.211 98.784 964.267 105.6C1042.43 148.368 1156.1 144.528 1254.4 158.4C1169.58 90.096 1017.34 63.36 921.6 0H861.867C869.803 5.472 871.083 12.24 870.4 19.2C861.781 13.968 851.456 6.768 844.8 0H802.133C841.216 27.456 880.555 54.576 921.6 81.6ZM1160.53 139.2C1063.25 123.648 946.773 99.36 913.067 38.4C986.453 80.592 1088.68 98.544 1160.53 139.2Z" stroke="#EBEBEB" stroke-width="0.3"/>
<path d="M861.867 0H844.8C851.456 6.768 861.781 13.968 870.4 19.2C871.083 12.24 869.803 5.472 861.867 0Z" stroke="#151515" stroke-width="0.3"/>
<path d="M1382.4 158.4C1365.67 150.96 1352.62 143.568 1339.73 134.4C1268.22 83.472 1209.09 27.072 1100.8 0H1066.67C1125.97 29.52 1216.51 49.968 1245.87 96C1189.38 53.616 1107.71 26.496 1032.53 0H981.333C1243.05 82.896 1446.66 278.4 1783.47 249.6C1657.69 202.032 1503.4 212.112 1382.4 158.4Z" stroke="#EBEBEB" stroke-width="0.3"/>
<path d="M1066.67 0H1032.53C1107.71 26.496 1189.38 53.616 1245.87 96C1216.51 49.968 1125.97 29.52 1066.67 0Z" stroke="#2C2C2C" stroke-width="0.3"/>
<path d="M1920 196.8V172.8C1850.28 147.696 1757.44 139.296 1698.13 105.6C1768.45 125.088 1841.83 144.912 1920 153.6V134.4C1721.09 63.36 1442.47 97.968 1271.47 0H1211.73C1318.14 36.912 1387.95 117.264 1527.47 120C1666.99 122.736 1811.63 144.672 1920 196.8ZM1646.93 100.8C1556.31 106.992 1426.01 107.232 1365.33 57.6C1463.21 64.704 1546.33 96.816 1646.93 100.8Z" stroke="#E8E8E8" stroke-width="0.3"/>
<path d="M1920 134.4V96C1807.79 75.792 1712.47 30.816 1612.8 0H1450.67C1532.07 21.12 1631.57 24.048 1706.67 57.6C1596.59 48.48 1440.09 46.176 1348.27 0H1271.47C1442.47 97.968 1721.09 63.36 1920 134.4Z" stroke="#030303" stroke-width="0.3"/>
<path d="M1450.67 0H1348.27C1440.09 46.176 1596.59 48.48 1706.67 57.6C1631.57 24.048 1532.07 21.12 1450.67 0Z" stroke="white" stroke-width="0.3"/>
<path d="M1920 96V67.2C1826.47 53.904 1733.97 30.672 1655.47 0H1612.8C1712.47 30.816 1807.79 75.792 1920 96Z" stroke="#E3E3E3" stroke-width="0.3"/>
<path d="M1920 67.2V43.2C1874.52 31.632 1831 15.648 1792 0H1655.47C1733.97 30.672 1826.47 53.904 1920 67.2Z" stroke="#020202" stroke-width="0.3"/>
<path d="M1920 43.2V19.2C1898.67 16.032 1876.39 7.584 1860.27 0H1792C1831 15.648 1874.52 31.632 1920 43.2Z" stroke="#E7E7E7" stroke-width="0.3"/>
<path d="M1920 19.2V0H1860.27C1876.39 7.584 1898.67 16.032 1920 19.2Z" stroke="#020202" stroke-width="0.3"/>
<path d="M1160.53 139.2C1088.68 98.544 986.453 80.592 913.067 38.4C946.773 99.36 1063.25 123.648 1160.53 139.2Z" stroke="#060606" stroke-width="0.3"/>
<path d="M0 67.2C112.384 94.32 243.2 126.672 339.2 169.2C435.2 211.728 518.912 295.392 648.533 264C555.435 269.04 499.541 222.912 435.2 192C416.597 183.072 400.64 172.56 384 163.2C268.885 107.856 136.192 76.464 0 43.2V67.2Z" stroke="#040404" stroke-width="0.3"/>
<path d="M1920 273.6V225.6C1716.65 159.264 1452.54 165.6 1288.53 57.6C1333.33 127.248 1460.14 167.52 1585.32 178.656C1710.51 189.792 1801.22 253.632 1920 273.6Z" stroke="white" stroke-width="0.3"/>
<path d="M1646.93 100.8C1546.33 96.816 1463.21 64.704 1365.33 57.6C1426.01 107.232 1556.31 106.992 1646.93 100.8Z" stroke="#050505" stroke-width="0.3"/>
<path d="M964.267 105.6C951.211 98.784 934.741 88.992 921.6 81.6C934.912 90.384 947.541 98.16 964.267 105.6Z" stroke="#737373" stroke-width="0.3"/>
<path d="M0 134.4C124.245 170.688 287.915 185.616 366.933 259.2C252.331 224.496 114.176 232.368 0 196.8V230.4C127.061 257.088 275.285 254.496 400.469 283.536C525.568 312.576 684.288 318.912 817.323 322.656C950.357 326.4 1012.39 408.096 1137.66 420.864C1263.02 433.584 1357.82 474.24 1459.2 513.6C1371.39 461.904 1270.53 404.688 1144.15 378.816C1017.69 352.992 897.365 298.656 759.552 287.952C621.739 277.296 435.115 290.352 347.733 212.4C260.352 134.448 120.149 140.208 0 100.8V134.4Z" stroke="#030303" stroke-width="0.3"/>
<path d="M1920 172.8V153.6C1841.83 144.912 1768.45 125.088 1698.13 105.6C1757.44 139.296 1850.28 147.696 1920 172.8Z" stroke="#1F1F1F" stroke-width="0.3"/>
<path d="M315.733 120C324.352 128.208 339.456 139.44 358.4 139.2C349.952 128.976 331.093 122.016 315.733 115.2C315.733 115.2 314.027 118.08 315.733 120Z" stroke="#666666" stroke-width="0.3"/>
<path d="M836.267 168C808.875 152.592 778.667 135.6 750.933 120C776.789 137.04 805.547 153.264 836.267 168Z" stroke="#6F6F6F" stroke-width="0.3"/>
<path d="M0 158.4C96.8533 169.872 203.776 187.68 273.067 230.4C186.709 205.248 87.7227 200.976 0 177.6V196.8C114.176 232.368 252.331 224.496 366.933 259.2C287.915 185.616 124.245 170.688 0 134.4V158.4Z" stroke="#E4E4E4" stroke-width="0.3"/>
<path d="M1382.4 158.4C1369.77 151.872 1351.77 141.744 1339.73 134.4C1352.62 143.568 1365.67 150.96 1382.4 158.4Z" stroke="#727272" stroke-width="0.3"/>
<path d="M904.533 172.8C888.491 163.776 869.717 153.216 853.333 144C869.12 154.416 885.589 163.68 904.533 172.8Z" stroke="#6D6D6D" stroke-width="0.3"/>
<path d="M0 177.6C87.7227 200.976 186.709 205.248 273.067 230.4C203.776 187.68 96.8533 169.872 0 158.4V177.6Z" stroke="#070707" stroke-width="0.3"/>
<path d="M435.2 192C418.56 182.64 402.603 172.128 384 163.2C400.64 172.56 416.597 183.072 435.2 192Z" stroke="#7C7C7C" stroke-width="0.3"/>
<path d="M1920 388.8V350.4C1826.3 315.456 1703.59 320.496 1610.67 289.2C1517.74 257.952 1430.02 230.112 1322.67 220.8C1215.32 211.488 1104.73 196.608 1006.93 168C1078.36 221.472 1184.6 242.064 1296.98 249.648C1409.37 257.232 1516.54 279.6 1606.4 320.4C1696.26 361.152 1833.13 340.704 1920 388.8Z" stroke="#040404" stroke-width="0.3"/>
<path d="M0 264C21.0773 264.384 40.96 269.472 59.7333 273.6C57.6 272.544 59.7333 268.8 59.7333 268.8C43.1787 260.544 17.92 261.024 0 254.4V264Z" stroke="#8F8F8F" stroke-width="0.3"/>
<path d="M59.7333 273.6C173.909 292.56 286.208 314.016 401.067 331.2C328.875 279.12 174.336 273.648 59.7333 268.8C59.7333 268.8 57.6 272.544 59.7333 273.6Z" stroke="#070707" stroke-width="0.3"/>
<path d="M0 297.6C143.36 378.48 391.339 361.2 506.027 464.16C620.715 567.072 740.523 634.416 801.963 748.896C863.317 863.424 833.109 1000.08 1015.47 1080H1049.6C831.573 991.296 927.659 811.392 827.733 686.4C972.885 716.592 1010.69 809.808 1015.47 888C1020.33 966.192 1098.5 1042.27 1228.8 1075.2C1158.83 1034.59 1106.35 987.312 1103.62 929.616C1100.89 871.92 1081.34 808.272 1030.57 759.504C979.797 710.736 914.944 686.64 838.4 656.4C761.771 626.16 674.56 601.584 647.851 547.584C621.227 493.536 520.789 480.384 494.763 422.496C468.651 364.656 356.779 348.432 257.877 344.544C159.061 340.608 92.5013 290.592 0 278.4V297.6Z" stroke="#030303" stroke-width="0.3"/>
<path d="M1902.93 326.4C1888.85 285.024 1770.41 285.504 1715.2 292.8C1775.96 307.824 1849.26 301.776 1902.93 326.4Z" stroke="#090909" stroke-width="0.3"/>
<path d="M1134.93 355.2C1083.39 314.4 995.413 299.568 913.067 292.8C963.584 334.8 1058.47 339.456 1134.93 355.2Z" stroke="#070707" stroke-width="0.3"/>
<path d="M1920 633.6V580.8C1821.35 548.688 1665.54 547.056 1589.33 493.2C1513.13 439.344 1455.19 385.632 1399.47 326.4C1574.4 403.824 1683.29 525.792 1920 552V528C1815.81 483.168 1677.74 469.104 1587.2 412.8C1687.21 446.4 1798.66 471.264 1920 470.4V451.2C1823.57 421.152 1687.13 424.8 1597.7 387.696C1508.27 350.592 1446.23 299.28 1331.2 292.8C1421.23 360.864 1464.75 432.864 1559.47 500.4C1654.19 567.936 1801.13 590.208 1920 633.6Z" stroke="#EDEDED" stroke-width="0.3"/>
<path d="M0 350.4C120.832 356.832 221.952 398.112 341.333 408C224.427 439.68 114.603 392.928 0 388.8V417.6C143.019 418.464 324.693 449.088 349.269 537.936C373.845 626.832 490.069 659.04 579.584 725.184C669.099 791.328 680.875 890.304 699.733 964.8C638.208 896.832 621.995 814.32 556.629 747.696C491.264 681.072 365.909 651.312 326.229 574.896C286.464 498.48 162.56 428.4 0 456V470.4C270.677 461.856 293.632 635.76 412.245 737.712C530.773 839.712 497.323 996.288 691.2 1080H742.4C653.483 1015.39 545.707 954.48 538.197 868.464C530.688 782.448 401.749 721.152 358.4 643.2C384.256 696.384 519.851 708.72 544.171 764.304C568.491 819.888 595.115 886.896 631.381 940.848C667.733 994.8 715.349 1039.78 793.6 1080H844.8C687.189 1007.09 735.573 888.144 674.133 792C770.048 880.656 722.261 1002.38 861.867 1080H904.533C715.349 990.72 803.755 834.096 665.6 729.6C631.893 707.856 586.667 690 554.667 667.2C500.224 628.416 490.837 584.88 416 553.2C341.163 521.52 345.6 464.88 290.133 427.2C377.429 444.144 376.32 511.632 458.667 538.8C541.013 565.968 561.237 613.056 629.333 649.2C697.429 685.296 757.163 716.448 784.384 768.384C811.691 820.272 822.016 898.032 819.2 955.2C816.384 1012.37 909.397 1044.43 972.8 1080H1015.47C833.109 1000.08 863.317 863.424 801.963 748.896C740.523 634.416 620.715 567.072 506.027 464.16C391.339 361.2 143.36 378.48 0 297.6V350.4ZM691.2 657.6C602.197 587.136 440.235 523.824 392.533 436.8C535.808 487.2 595.115 583.68 691.2 657.6Z" stroke="#ECECEC" stroke-width="0.3"/>
<path d="M776.533 528C750.848 516.624 729.003 503.232 708.267 489.6C615.168 433.44 574.123 342.336 426.667 321.6C508.843 396.96 619.264 447.264 693.163 526.896C767.061 606.528 908.629 647.04 1056.17 677.904C1203.71 708.768 1305.34 766.56 1418.67 829.2C1531.9 891.888 1540.69 986.496 1681.07 1032C1552.3 943.152 1500.59 797.856 1311.49 731.088C1122.47 664.272 951.979 605.904 776.533 528Z" stroke="#040404" stroke-width="0.3"/>
<path d="M1920 580.8V552C1683.29 525.792 1574.4 403.824 1399.47 326.4C1455.19 385.632 1513.13 439.344 1589.33 493.2C1665.54 547.056 1821.35 548.688 1920 580.8Z" stroke="#030303" stroke-width="0.3"/>
<path d="M1843.2 1080H1920V1046.4C1749.5 951.312 1664.94 806.208 1484.8 715.2C1641.56 822.624 1680.47 966.432 1877.33 1060.8C1724.25 1025.52 1648.81 936.288 1589.85 852.912C1530.79 769.584 1413.55 716.4 1299.2 651.6C1184.77 586.848 1106.01 528.192 1000.53 454.8C895.061 381.408 727.723 330.96 554.667 340.8C745.216 379.248 940.288 445.152 1073.07 538.8C1205.85 632.448 1353.73 704.688 1485.48 796.416C1617.24 888.144 1638.4 1018.94 1843.2 1080Z" stroke="#050505" stroke-width="0.3"/>
<path d="M0 388.8C114.603 392.928 224.427 439.68 341.333 408C221.952 398.112 120.832 356.832 0 350.4V388.8Z" stroke="#030303" stroke-width="0.3"/>
<path d="M1237.33 676.8C1151.83 627.312 1034.41 589.392 975.36 521.76C916.395 454.08 759.211 447.696 674.133 393.6C710.4 469.632 833.707 501.888 928 553.2C1022.29 604.464 1118.12 650.736 1237.33 676.8Z" stroke="#030303" stroke-width="0.3"/>
<path d="M1920 1008V945.6C1790.55 873.312 1676.12 802.128 1597.7 709.296C1519.27 616.512 1283.84 602.064 1211.73 508.8C1511.51 553.776 1767.17 687.168 1920 835.2V787.2C1800.79 706.608 1686.7 615.696 1525.33 558C1363.97 500.352 1126.23 494.112 1006.93 403.2C1065.13 463.872 1150.55 508.704 1222.23 565.296C1293.91 621.888 1379.41 660.384 1492.65 691.584C1605.89 722.784 1607.25 811.92 1700.27 853.2C1793.37 894.432 1862.31 951.6 1920 1008Z" stroke="#040404" stroke-width="0.3"/>
<path d="M1920 528V513.6C1902.51 507.12 1886.21 500.64 1868.8 494.4C1878.53 485.424 1904.04 491.472 1920 489.6V470.4C1798.66 471.264 1687.21 446.4 1587.2 412.8C1677.74 469.104 1815.81 483.168 1920 528Z" stroke="#040404" stroke-width="0.3"/>
<path d="M0 456C162.56 428.4 286.464 498.48 326.229 574.896C365.909 651.312 491.264 681.072 556.629 747.696C621.995 814.32 638.208 896.832 699.733 964.8C680.875 890.304 669.099 791.328 579.584 725.184C490.069 659.04 373.845 626.832 349.269 537.936C324.693 449.088 143.019 418.464 0 417.6V456Z" stroke="#050505" stroke-width="0.3"/>
<path d="M554.667 667.2C589.653 688.512 634.624 706.176 665.6 729.6C803.755 834.096 715.349 990.72 904.533 1080H972.8C909.397 1044.43 816.384 1012.37 819.2 955.2C822.016 898.032 811.691 820.272 784.384 768.384C757.163 716.448 697.429 685.296 629.333 649.2C561.237 613.056 541.013 565.968 458.667 538.8C376.32 511.632 377.429 444.144 290.133 427.2C345.6 464.88 341.163 521.52 416 553.2C490.837 584.88 500.224 628.416 554.667 667.2Z" stroke="#030303" stroke-width="0.3"/>
<path d="M691.2 657.6C595.115 583.68 535.808 487.2 392.533 436.8C440.235 523.824 602.197 587.136 691.2 657.6Z" stroke="#090909" stroke-width="0.3"/>
<path d="M0 489.6C136.875 484.848 241.835 545.904 256 619.2C169.131 577.248 128.853 514.224 0 513.6V532.8C131.328 552.432 180.309 618.96 283.733 670.8C387.157 722.64 439.979 808.896 435.2 888C430.421 967.104 586.496 1012.42 631.467 1080H691.2C497.323 996.288 530.773 839.712 412.245 737.712C293.632 635.76 270.677 461.856 0 470.4V489.6Z" stroke="#030303" stroke-width="0.3"/>
<path d="M0 513.6C128.853 514.224 169.131 577.248 256 619.2C241.835 545.904 136.875 484.848 0 489.6V513.6Z" stroke="#ECECEC" stroke-width="0.3"/>
<path d="M776.533 528C754.688 516.624 729.856 501.744 708.267 489.6C729.003 503.232 750.848 516.624 776.533 528Z" stroke="#727272" stroke-width="0.3"/>
<path d="M1920 513.6V489.6C1904.04 491.472 1878.53 485.424 1868.8 494.4C1886.21 500.64 1902.51 507.12 1920 513.6Z" stroke="#CECECE" stroke-width="0.3"/>
<path d="M1920 945.6V916.8C1743.62 799.824 1610.24 663.648 1382.4 571.2C1633.88 621.504 1762.13 760.224 1920 868.8V835.2C1767.17 687.168 1511.51 553.776 1211.73 508.8C1283.84 602.064 1519.27 616.512 1597.7 709.296C1676.12 802.128 1790.55 873.312 1920 945.6ZM1373.87 566.4C1354.92 563.952 1332.91 556.896 1322.67 547.2C1342.81 548.4 1365.33 555.312 1373.87 566.4Z" stroke="#EAEAEA" stroke-width="0.3"/>
<path d="M0 552C121.429 579.552 175.019 638.064 245.504 697.104C315.989 756.144 359.68 837.552 369.749 910.416C379.819 983.28 474.197 1036.22 571.733 1080H631.467C586.496 1012.42 430.421 967.104 435.2 888C439.979 808.896 387.157 722.64 283.733 670.8C180.309 618.96 131.328 552.432 0 532.8V552Z" stroke="#F1F1F1" stroke-width="0.3"/>
<path d="M1373.87 566.4C1365.33 555.312 1342.81 548.4 1322.67 547.2C1332.91 556.896 1354.92 563.952 1373.87 566.4Z" stroke="#737373" stroke-width="0.3"/>
<path d="M0 585.6C88.9173 623.568 136.021 672 206.933 723.6C277.76 775.248 327.851 849.792 307.2 921.6C286.549 993.408 401.408 1037.33 486.4 1080H571.733C474.197 1036.22 379.819 983.28 369.749 910.416C359.68 837.552 315.989 756.144 245.504 697.104C175.019 638.064 121.429 579.552 0 552V585.6Z" stroke="#030303" stroke-width="0.3"/>
<path d="M1920 916.8V868.8C1762.13 760.224 1633.88 621.504 1382.4 571.2C1610.24 663.648 1743.62 799.824 1920 916.8Z" stroke="#040404" stroke-width="0.3"/>
<path d="M0 638.4C112.811 719.952 317.781 793.68 273.067 912C250.795 861.408 218.027 812.88 171.349 767.616C124.672 722.4 39.0827 704.976 0 657.6V710.4C187.733 774.384 209.579 912.144 298.667 1012.8C179.712 935.952 153.941 823.968 0 758.4V792C50.7733 826.944 98.9013 867.36 136.533 907.2C88.2347 886.8 45.824 862.08 0 840V868.8C64.256 906.816 151.381 926.544 194.133 975.6C236.971 1024.61 338.859 1041.94 401.067 1080H486.4C401.408 1037.33 286.549 993.408 307.2 921.6C327.851 849.792 277.76 775.248 206.933 723.6C136.021 672 88.9173 623.568 0 585.6V638.4Z" stroke="#EFEFEF" stroke-width="0.3"/>
<path d="M0 657.6C39.0827 704.976 124.672 722.4 171.349 767.616C218.027 812.88 250.795 861.408 273.067 912C317.781 793.68 112.811 719.952 0 638.4V657.6Z" stroke="#090909" stroke-width="0.3"/>
<path d="M742.4 1080H793.6C715.349 1039.78 667.733 994.8 631.381 940.848C595.115 886.896 568.491 819.888 544.171 764.304C519.851 708.72 384.256 696.384 358.4 643.2C401.749 721.152 530.688 782.448 538.197 868.464C545.707 954.48 653.483 1015.39 742.4 1080Z" stroke="#040404" stroke-width="0.3"/>
<path d="M1920 753.6V710.4C1886.63 678.768 1833.13 654.144 1766.4 648C1820.59 681.984 1857.88 723.696 1920 753.6Z" stroke="#030303" stroke-width="0.3"/>
<path d="M665.6 729.6C634.624 706.176 589.653 688.512 554.667 667.2C586.667 690 631.893 707.856 665.6 729.6Z" stroke="#7B7B7B" stroke-width="0.3"/>
<path d="M1271.47 1080H1339.73C1252.18 975.936 1227.35 859.68 1126.4 758.4C1207.04 818.16 1359.02 838.944 1397.59 913.056C1436.07 987.216 1520.3 1048.08 1646.93 1080H1783.47C1615.1 1041.46 1505.71 967.824 1435.73 877.2C1365.85 786.528 1177.69 748.896 1041.07 705.6C1175.98 819.648 1151.57 963.696 1271.47 1080Z" stroke="#020202" stroke-width="0.3"/>
<path d="M0 758.4C153.941 823.968 179.712 935.952 298.667 1012.8C209.579 912.144 187.733 774.384 0 710.4V758.4Z" stroke="#050505" stroke-width="0.3"/>
<path d="M1092.27 1080H1186.13C891.904 1038.48 1042.77 821.088 878.933 724.8C987.477 837.168 852.821 1005.17 1092.27 1080Z" stroke="#040404" stroke-width="0.3"/>
<path d="M1339.73 1080H1442.13C1300.31 1024.27 1333.42 915.36 1228.8 844.8C1319.77 873.072 1353.98 922.608 1380.52 975.456C1406.98 1028.35 1492.22 1071.6 1587.2 1080H1646.93C1520.3 1048.08 1436.07 987.216 1397.59 913.056C1359.02 838.944 1207.04 818.16 1126.4 758.4C1227.35 859.68 1252.18 975.936 1339.73 1080Z" stroke="white" stroke-width="0.3"/>
<path d="M0 840C45.824 862.08 88.2347 886.8 136.533 907.2C98.9013 867.36 50.7733 826.944 0 792V840Z" stroke="#050505" stroke-width="0.3"/>
<path d="M844.8 1080H861.867C722.261 1002.38 770.048 880.656 674.133 792C735.573 888.144 687.189 1007.09 844.8 1080Z" stroke="#0B0B0B" stroke-width="0.3"/>
<path d="M1442.13 1080H1587.2C1492.22 1071.6 1406.98 1028.35 1380.52 975.456C1353.98 922.608 1319.77 873.072 1228.8 844.8C1333.42 915.36 1300.31 1024.27 1442.13 1080Z" stroke="#040404" stroke-width="0.3"/>
<path d="M0 926.4C75.264 990.864 202.24 1028.74 298.667 1080H401.067C338.859 1041.94 236.971 1024.61 194.133 975.6C151.381 926.544 64.256 906.816 0 868.8V926.4Z" stroke="#030303" stroke-width="0.3"/>
<path d="M0 955.2C43.6053 1002 105.216 1051.1 187.733 1080H298.667C202.24 1028.74 75.264 990.864 0 926.4V955.2Z" stroke="#F1F1F1" stroke-width="0.3"/>
<path d="M0 1012.8C32 1038.43 84.9067 1055.38 119.467 1080H187.733C105.216 1051.1 43.6053 1002 0 955.2V1012.8Z" stroke="#060606" stroke-width="0.3"/>
<path d="M0 1051.2C19.456 1058.74 38.9973 1068.82 51.2 1080H119.467C84.9067 1055.38 32 1038.43 0 1012.8V1051.2Z" stroke="#F0F0F0" stroke-width="0.3"/>
<path d="M0 1080H51.2C38.9973 1068.82 19.456 1058.74 0 1051.2V1080Z" stroke="#0A0A0A" stroke-width="0.3"/>
<path d="M0 24C60.5013 25.92 107.691 58.848 164.096 66.096C220.501 73.344 260.864 116.688 315.733 120C314.027 118.08 315.733 115.2 315.733 115.2C230.144 77.184 136.96 42.864 59.7333 0H0V24Z" fill="#0A0A0A" stroke="black"/>
<path d="M315.733 115.2C331.093 122.016 349.952 128.976 358.4 139.2C339.456 139.44 324.352 128.208 315.733 120C260.864 116.688 220.501 73.344 164.096 66.096C107.691 58.848 60.5013 25.92 0 24V43.2C136.192 76.464 268.885 107.856 384 163.2C402.603 172.128 418.56 182.64 435.2 192C499.541 222.912 555.435 269.04 648.533 264C518.912 295.392 435.2 211.728 339.2 169.2C243.2 126.672 112.384 94.32 0 67.2V100.8C120.149 140.208 260.352 134.448 347.733 212.4C435.115 290.352 621.739 277.296 759.552 287.952C897.365 298.656 1017.69 352.992 1144.15 378.816C1270.53 404.688 1371.39 461.904 1459.2 513.6C1357.82 474.24 1263.02 433.584 1137.66 420.864C1012.39 408.096 950.357 326.4 817.323 322.656C684.288 318.912 525.568 312.576 400.469 283.536C275.285 254.496 127.061 257.088 0 230.4V254.4C17.92 261.024 43.1787 260.544 59.7333 268.8C174.336 273.648 328.875 279.12 401.067 331.2C286.208 314.016 173.909 292.56 59.7333 273.6C40.96 269.472 21.0773 264.384 0 264V278.4C92.5013 290.592 159.061 340.608 257.877 344.544C356.779 348.432 468.651 364.656 494.763 422.496C520.789 480.384 621.227 493.536 647.851 547.584C674.56 601.584 761.771 626.16 838.4 656.4C914.944 686.64 979.797 710.736 1030.57 759.504C1081.34 808.272 1100.89 871.92 1103.62 929.616C1106.35 987.312 1158.83 1034.59 1228.8 1075.2C1098.5 1042.27 1020.33 966.192 1015.47 888C1010.69 809.808 972.885 716.592 827.733 686.4C927.659 811.392 831.573 991.296 1049.6 1080H1092.27C852.821 1005.17 987.477 837.168 878.933 724.8C1042.77 821.088 891.904 1038.48 1186.13 1080H1271.47C1151.57 963.696 1175.98 819.648 1041.07 705.6C1177.69 748.896 1365.85 786.528 1435.73 877.2C1505.71 967.824 1615.1 1041.46 1783.47 1080H1843.2C1638.4 1018.94 1617.24 888.144 1485.48 796.416C1353.73 704.688 1205.85 632.448 1073.07 538.8C940.288 445.152 745.216 379.248 554.667 340.8C727.723 330.96 895.061 381.408 1000.53 454.8C1106.01 528.192 1184.77 586.848 1299.2 651.6C1413.55 716.4 1530.79 769.584 1589.85 852.912C1648.81 936.288 1724.25 1025.52 1877.33 1060.8C1680.47 966.432 1641.56 822.624 1484.8 715.2C1664.94 806.208 1749.5 951.312 1920 1046.4V1008C1862.31 951.6 1793.37 894.432 1700.27 853.2C1607.25 811.92 1605.89 722.784 1492.65 691.584C1379.41 660.384 1293.91 621.888 1222.23 565.296C1150.55 508.704 1065.13 463.872 1006.93 403.2C1126.23 494.112 1363.97 500.352 1525.33 558C1686.7 615.696 1800.79 706.608 1920 787.2V753.6C1857.88 723.696 1820.59 681.984 1766.4 648C1833.13 654.144 1886.63 678.768 1920 710.4V652.8C1809.83 620.928 1669.46 607.824 1576.53 558C1483.61 508.128 1420.54 445.92 1363.2 385.2C1305.77 324.528 1213.44 263.04 1090.39 250.656C967.253 238.32 820.053 215.568 744.533 152.4C669.013 89.28 532.821 76.56 494.933 0H401.067C455.765 85.44 610.731 95.136 699.051 168.384C787.285 241.632 960.853 254.592 1094.14 282.144C1227.52 309.648 1321.81 390.096 1399.47 451.2C1329.15 394.08 1236.48 373.536 1141.5 332.304C1046.53 291.072 902.656 278.736 793.003 259.536C683.264 240.384 655.189 155.952 540.245 137.712C425.216 119.52 382.635 42.24 307.2 0H204.8C411.051 79.872 576.597 203.328 793.6 278.4C675.755 243.024 519.168 224.592 433.067 159.6C347.051 94.56 243.627 49.872 136.533 0H59.7333C136.96 42.864 230.144 77.184 315.733 115.2ZM1134.93 355.2C1058.47 339.456 963.584 334.8 913.067 292.8C995.413 299.568 1083.39 314.4 1134.93 355.2ZM708.267 489.6C729.856 501.744 754.688 516.624 776.533 528C951.979 605.904 1122.47 664.272 1311.49 731.088C1500.59 797.856 1552.3 943.152 1681.07 1032C1540.69 986.496 1531.9 891.888 1418.67 829.2C1305.34 766.56 1203.71 708.768 1056.17 677.904C908.629 647.04 767.061 606.528 693.163 526.896C619.264 447.264 508.843 396.96 426.667 321.6C574.123 342.336 615.168 433.44 708.267 489.6ZM1237.33 676.8C1118.12 650.736 1022.29 604.464 928 553.2C833.707 501.888 710.4 469.632 674.133 393.6C759.211 447.696 916.395 454.08 975.36 521.76C1034.41 589.392 1151.83 627.312 1237.33 676.8Z" fill="white" stroke="black"/>
<path d="M204.8 0H136.533C243.627 49.872 347.051 94.56 433.067 159.6C519.168 224.592 675.755 243.024 793.6 278.4C576.597 203.328 411.051 79.872 204.8 0Z" fill="#040404" stroke="black"/>
<path d="M401.067 0H307.2C382.635 42.24 425.216 119.52 540.245 137.712C655.189 155.952 683.264 240.384 793.003 259.536C902.656 278.736 1046.53 291.072 1141.5 332.304C1236.48 373.536 1329.15 394.08 1399.47 451.2C1321.81 390.096 1227.52 309.648 1094.14 282.144C960.853 254.592 787.285 241.632 699.051 168.384C610.731 95.136 455.765 85.44 401.067 0Z" fill="#030303" stroke="black"/>
<path d="M1920 652.8V633.6C1801.13 590.208 1654.19 567.936 1559.47 500.4C1464.75 432.864 1421.23 360.864 1331.2 292.8C1446.23 299.28 1508.27 350.592 1597.7 387.696C1687.13 424.8 1823.57 421.152 1920 451.2V417.6C1711.1 407.808 1593.51 319.68 1406.12 279.456C1218.65 239.28 998.571 246 836.267 168C805.547 153.264 776.789 137.04 750.933 120C687.957 78.528 593.237 59.808 580.267 0H494.933C532.821 76.56 669.013 89.28 744.533 152.4C820.053 215.568 967.253 238.32 1090.39 250.656C1213.44 263.04 1305.77 324.528 1363.2 385.2C1420.54 445.92 1483.61 508.128 1576.53 558C1669.46 607.824 1809.83 620.928 1920 652.8Z" fill="#040404" stroke="black"/>
<path d="M750.933 120C778.667 135.6 808.875 152.592 836.267 168C998.571 246 1218.65 239.28 1406.12 279.456C1593.51 319.68 1711.1 407.808 1920 417.6V388.8C1833.13 340.704 1696.26 361.152 1606.4 320.4C1516.54 279.6 1409.37 257.232 1296.98 249.648C1184.6 242.064 1078.36 221.472 1006.93 168C1104.73 196.608 1215.32 211.488 1322.67 220.8C1430.02 230.112 1517.74 257.952 1610.67 289.2C1703.59 320.496 1826.3 315.456 1920 350.4V297.6C1782.7 260.304 1600 286.656 1475.58 230.784C1351.25 174.864 1170.86 199.2 1040.38 158.784C909.995 118.32 817.92 74.88 750.933 0H699.733C790.699 79.92 919.552 150 1041.07 216C988.416 211.056 944.811 192.048 904.533 172.8C885.589 163.68 869.12 154.416 853.333 144C780.288 95.904 670.379 62.256 640 0H580.267C593.237 59.808 687.957 78.528 750.933 120ZM1902.93 326.4C1849.26 301.776 1775.96 307.824 1715.2 292.8C1770.41 285.504 1888.85 285.024 1902.93 326.4Z" fill="#EBEBEB" stroke="black"/>
<path d="M853.333 144C869.717 153.216 888.491 163.776 904.533 172.8C944.811 192.048 988.416 211.056 1041.07 216C919.552 150 790.699 79.92 699.733 0H640C670.379 62.256 780.288 95.904 853.333 144Z" fill="#030303" stroke="black"/>
<path d="M1920 297.6V273.6C1801.22 253.632 1710.51 189.792 1585.32 178.656C1460.14 167.52 1333.33 127.248 1288.53 57.6C1452.54 165.6 1716.65 159.264 1920 225.6V196.8C1811.63 144.672 1666.99 122.736 1527.47 120C1387.95 117.264 1318.14 36.912 1211.73 0H1100.8C1209.09 27.072 1268.22 83.472 1339.73 134.4C1351.77 141.744 1369.77 151.872 1382.4 158.4C1503.4 212.112 1657.69 202.032 1783.47 249.6C1446.66 278.4 1243.05 82.896 981.333 0H921.6C1017.34 63.36 1169.58 90.096 1254.4 158.4C1156.1 144.528 1042.43 148.368 964.267 105.6C947.541 98.16 934.912 90.384 921.6 81.6C880.555 54.576 841.216 27.456 802.133 0H750.933C817.92 74.88 909.995 118.32 1040.38 158.784C1170.86 199.2 1351.25 174.864 1475.58 230.784C1600 286.656 1782.7 260.304 1920 297.6Z" fill="#030303" stroke="black"/>
<path d="M921.6 81.6C934.741 88.992 951.211 98.784 964.267 105.6C1042.43 148.368 1156.1 144.528 1254.4 158.4C1169.58 90.096 1017.34 63.36 921.6 0H861.867C869.803 5.472 871.083 12.24 870.4 19.2C861.781 13.968 851.456 6.768 844.8 0H802.133C841.216 27.456 880.555 54.576 921.6 81.6ZM1160.53 139.2C1063.25 123.648 946.773 99.36 913.067 38.4C986.453 80.592 1088.68 98.544 1160.53 139.2Z" fill="#EBEBEB" stroke="black"/>
<path d="M861.867 0H844.8C851.456 6.768 861.781 13.968 870.4 19.2C871.083 12.24 869.803 5.472 861.867 0Z" fill="#151515" stroke="black"/>
<path d="M1382.4 158.4C1365.67 150.96 1352.62 143.568 1339.73 134.4C1268.22 83.472 1209.09 27.072 1100.8 0H1066.67C1125.97 29.52 1216.51 49.968 1245.87 96C1189.38 53.616 1107.71 26.496 1032.53 0H981.333C1243.05 82.896 1446.66 278.4 1783.47 249.6C1657.69 202.032 1503.4 212.112 1382.4 158.4Z" fill="#EBEBEB" stroke="black"/>
<path d="M1066.67 0H1032.53C1107.71 26.496 1189.38 53.616 1245.87 96C1216.51 49.968 1125.97 29.52 1066.67 0Z" fill="#2C2C2C" stroke="black"/>
<path d="M1920 196.8V172.8C1850.28 147.696 1757.44 139.296 1698.13 105.6C1768.45 125.088 1841.83 144.912 1920 153.6V134.4C1721.09 63.36 1442.47 97.968 1271.47 0H1211.73C1318.14 36.912 1387.95 117.264 1527.47 120C1666.99 122.736 1811.63 144.672 1920 196.8ZM1646.93 100.8C1556.31 106.992 1426.01 107.232 1365.33 57.6C1463.21 64.704 1546.33 96.816 1646.93 100.8Z" fill="#E8E8E8" stroke="black"/>
<path d="M1920 134.4V96C1807.79 75.792 1712.47 30.816 1612.8 0H1450.67C1532.07 21.12 1631.57 24.048 1706.67 57.6C1596.59 48.48 1440.09 46.176 1348.27 0H1271.47C1442.47 97.968 1721.09 63.36 1920 134.4Z" fill="#030303" stroke="black"/>
<path d="M1450.67 0H1348.27C1440.09 46.176 1596.59 48.48 1706.67 57.6C1631.57 24.048 1532.07 21.12 1450.67 0Z" fill="white" stroke="black"/>
<path d="M1920 96V67.2C1826.47 53.904 1733.97 30.672 1655.47 0H1612.8C1712.47 30.816 1807.79 75.792 1920 96Z" fill="#E3E3E3" stroke="black"/>
<path d="M1920 67.2V43.2C1874.52 31.632 1831 15.648 1792 0H1655.47C1733.97 30.672 1826.47 53.904 1920 67.2Z" fill="#020202" stroke="black"/>
<path d="M1920 43.2V19.2C1898.67 16.032 1876.39 7.584 1860.27 0H1792C1831 15.648 1874.52 31.632 1920 43.2Z" fill="#E7E7E7" stroke="black"/>
<path d="M1920 19.2V0H1860.27C1876.39 7.584 1898.67 16.032 1920 19.2Z" fill="#020202" stroke="black"/>
<path d="M1160.53 139.2C1088.68 98.544 986.453 80.592 913.067 38.4C946.773 99.36 1063.25 123.648 1160.53 139.2Z" fill="#060606" stroke="black"/>
<path d="M0 67.2C112.384 94.32 243.2 126.672 339.2 169.2C435.2 211.728 518.912 295.392 648.533 264C555.435 269.04 499.541 222.912 435.2 192C416.597 183.072 400.64 172.56 384 163.2C268.885 107.856 136.192 76.464 0 43.2V67.2Z" fill="#040404" stroke="black"/>
<path d="M1920 273.6V225.6C1716.65 159.264 1452.54 165.6 1288.53 57.6C1333.33 127.248 1460.14 167.52 1585.32 178.656C1710.51 189.792 1801.22 253.632 1920 273.6Z" fill="white" stroke="black"/>
<path d="M1646.93 100.8C1546.33 96.816 1463.21 64.704 1365.33 57.6C1426.01 107.232 1556.31 106.992 1646.93 100.8Z" fill="#050505" stroke="black"/>
<path d="M964.267 105.6C951.211 98.784 934.741 88.992 921.6 81.6C934.912 90.384 947.541 98.16 964.267 105.6Z" fill="#737373" stroke="black"/>
<path d="M0 134.4C124.245 170.688 287.915 185.616 366.933 259.2C252.331 224.496 114.176 232.368 0 196.8V230.4C127.061 257.088 275.285 254.496 400.469 283.536C525.568 312.576 684.288 318.912 817.323 322.656C950.357 326.4 1012.39 408.096 1137.66 420.864C1263.02 433.584 1357.82 474.24 1459.2 513.6C1371.39 461.904 1270.53 404.688 1144.15 378.816C1017.69 352.992 897.365 298.656 759.552 287.952C621.739 277.296 435.115 290.352 347.733 212.4C260.352 134.448 120.149 140.208 0 100.8V134.4Z" fill="#030303" stroke="black"/>
<path d="M1920 172.8V153.6C1841.83 144.912 1768.45 125.088 1698.13 105.6C1757.44 139.296 1850.28 147.696 1920 172.8Z" fill="#1F1F1F" stroke="black"/>
<path d="M315.733 120C324.352 128.208 339.456 139.44 358.4 139.2C349.952 128.976 331.093 122.016 315.733 115.2C315.733 115.2 314.027 118.08 315.733 120Z" fill="black" stroke="black"/>
<path d="M836.267 168C808.875 152.592 778.667 135.6 750.933 120C776.789 137.04 805.547 153.264 836.267 168Z" fill="#6F6F6F" stroke="black"/>
<path d="M0 158.4C96.8533 169.872 203.776 187.68 273.067 230.4C186.709 205.248 87.7227 200.976 0 177.6V196.8C114.176 232.368 252.331 224.496 366.933 259.2C287.915 185.616 124.245 170.688 0 134.4V158.4Z" fill="#E4E4E4" stroke="black"/>
<path d="M1382.4 158.4C1369.77 151.872 1351.77 141.744 1339.73 134.4C1352.62 143.568 1365.67 150.96 1382.4 158.4Z" fill="#727272" stroke="black"/>
<path d="M904.533 172.8C888.491 163.776 869.717 153.216 853.333 144C869.12 154.416 885.589 163.68 904.533 172.8Z" fill="#6D6D6D" stroke="black"/>
<path d="M0 177.6C87.7227 200.976 186.709 205.248 273.067 230.4C203.776 187.68 96.8533 169.872 0 158.4V177.6Z" fill="#070707" stroke="black"/>
<path d="M435.2 192C418.56 182.64 402.603 172.128 384 163.2C400.64 172.56 416.597 183.072 435.2 192Z" fill="#7C7C7C" stroke="black"/>
<path d="M1920 388.8V350.4C1826.3 315.456 1703.59 320.496 1610.67 289.2C1517.74 257.952 1430.02 230.112 1322.67 220.8C1215.32 211.488 1104.73 196.608 1006.93 168C1078.36 221.472 1184.6 242.064 1296.98 249.648C1409.37 257.232 1516.54 279.6 1606.4 320.4C1696.26 361.152 1833.13 340.704 1920 388.8Z" fill="#040404" stroke="black"/>
<path d="M0 264C21.0773 264.384 40.96 269.472 59.7333 273.6C57.6 272.544 59.7333 268.8 59.7333 268.8C43.1787 260.544 17.92 261.024 0 254.4V264Z" fill="black" stroke="black"/>
<path d="M59.7333 273.6C173.909 292.56 286.208 314.016 401.067 331.2C328.875 279.12 174.336 273.648 59.7333 268.8C59.7333 268.8 57.6 272.544 59.7333 273.6Z" fill="#070707" stroke="black"/>
<path d="M0 297.6C143.36 378.48 391.339 361.2 506.027 464.16C620.715 567.072 740.523 634.416 801.963 748.896C863.317 863.424 833.109 1000.08 1015.47 1080H1049.6C831.573 991.296 927.659 811.392 827.733 686.4C972.885 716.592 1010.69 809.808 1015.47 888C1020.33 966.192 1098.5 1042.27 1228.8 1075.2C1158.83 1034.59 1106.35 987.312 1103.62 929.616C1100.89 871.92 1081.34 808.272 1030.57 759.504C979.797 710.736 914.944 686.64 838.4 656.4C761.771 626.16 674.56 601.584 647.851 547.584C621.227 493.536 520.789 480.384 494.763 422.496C468.651 364.656 356.779 348.432 257.877 344.544C159.061 340.608 92.5013 290.592 0 278.4V297.6Z" fill="#030303" stroke="black"/>
<path d="M1902.93 326.4C1888.85 285.024 1770.41 285.504 1715.2 292.8C1775.96 307.824 1849.26 301.776 1902.93 326.4Z" fill="#090909" stroke="black"/>
<path d="M1134.93 355.2C1083.39 314.4 995.413 299.568 913.067 292.8C963.584 334.8 1058.47 339.456 1134.93 355.2Z" fill="#070707" stroke="black"/>
<path d="M1920 633.6V580.8C1821.35 548.688 1665.54 547.056 1589.33 493.2C1513.13 439.344 1455.19 385.632 1399.47 326.4C1574.4 403.824 1683.29 525.792 1920 552V528C1815.81 483.168 1677.74 469.104 1587.2 412.8C1687.21 446.4 1798.66 471.264 1920 470.4V451.2C1823.57 421.152 1687.13 424.8 1597.7 387.696C1508.27 350.592 1446.23 299.28 1331.2 292.8C1421.23 360.864 1464.75 432.864 1559.47 500.4C1654.19 567.936 1801.13 590.208 1920 633.6Z" fill="#EDEDED" stroke="black"/>
<path d="M0 350.4C120.832 356.832 221.952 398.112 341.333 408C224.427 439.68 114.603 392.928 0 388.8V417.6C143.019 418.464 324.693 449.088 349.269 537.936C373.845 626.832 490.069 659.04 579.584 725.184C669.099 791.328 680.875 890.304 699.733 964.8C638.208 896.832 621.995 814.32 556.629 747.696C491.264 681.072 365.909 651.312 326.229 574.896C286.464 498.48 162.56 428.4 0 456V470.4C270.677 461.856 293.632 635.76 412.245 737.712C530.773 839.712 497.323 996.288 691.2 1080H742.4C653.483 1015.39 545.707 954.48 538.197 868.464C530.688 782.448 401.749 721.152 358.4 643.2C384.256 696.384 519.851 708.72 544.171 764.304C568.491 819.888 595.115 886.896 631.381 940.848C667.733 994.8 715.349 1039.78 793.6 1080H844.8C687.189 1007.09 735.573 888.144 674.133 792C770.048 880.656 722.261 1002.38 861.867 1080H904.533C715.349 990.72 803.755 834.096 665.6 729.6C631.893 707.856 586.667 690 554.667 667.2C500.224 628.416 490.837 584.88 416 553.2C341.163 521.52 345.6 464.88 290.133 427.2C377.429 444.144 376.32 511.632 458.667 538.8C541.013 565.968 561.237 613.056 629.333 649.2C697.429 685.296 757.163 716.448 784.384 768.384C811.691 820.272 822.016 898.032 819.2 955.2C816.384 1012.37 909.397 1044.43 972.8 1080H1015.47C833.109 1000.08 863.317 863.424 801.963 748.896C740.523 634.416 620.715 567.072 506.027 464.16C391.339 361.2 143.36 378.48 0 297.6V350.4ZM691.2 657.6C602.197 587.136 440.235 523.824 392.533 436.8C535.808 487.2 595.115 583.68 691.2 657.6Z" fill="#ECECEC" stroke="black"/>
<path d="M776.533 528C750.848 516.624 729.003 503.232 708.267 489.6C615.168 433.44 574.123 342.336 426.667 321.6C508.843 396.96 619.264 447.264 693.163 526.896C767.061 606.528 908.629 647.04 1056.17 677.904C1203.71 708.768 1305.34 766.56 1418.67 829.2C1531.9 891.888 1540.69 986.496 1681.07 1032C1552.3 943.152 1500.59 797.856 1311.49 731.088C1122.47 664.272 951.979 605.904 776.533 528Z" fill="#040404" stroke="black"/>
<path d="M1920 580.8V552C1683.29 525.792 1574.4 403.824 1399.47 326.4C1455.19 385.632 1513.13 439.344 1589.33 493.2C1665.54 547.056 1821.35 548.688 1920 580.8Z" fill="#030303" stroke="black"/>
<path d="M1843.2 1080H1920V1046.4C1749.5 951.312 1664.94 806.208 1484.8 715.2C1641.56 822.624 1680.47 966.432 1877.33 1060.8C1724.25 1025.52 1648.81 936.288 1589.85 852.912C1530.79 769.584 1413.55 716.4 1299.2 651.6C1184.77 586.848 1106.01 528.192 1000.53 454.8C895.061 381.408 727.723 330.96 554.667 340.8C745.216 379.248 940.288 445.152 1073.07 538.8C1205.85 632.448 1353.73 704.688 1485.48 796.416C1617.24 888.144 1638.4 1018.94 1843.2 1080Z" fill="#050505" stroke="black"/>
<path d="M0 388.8C114.603 392.928 224.427 439.68 341.333 408C221.952 398.112 120.832 356.832 0 350.4V388.8Z" fill="#030303" stroke="black"/>
<path d="M1237.33 676.8C1151.83 627.312 1034.41 589.392 975.36 521.76C916.395 454.08 759.211 447.696 674.133 393.6C710.4 469.632 833.707 501.888 928 553.2C1022.29 604.464 1118.12 650.736 1237.33 676.8Z" fill="#030303" stroke="black"/>
<path d="M1920 1008V945.6C1790.55 873.312 1676.12 802.128 1597.7 709.296C1519.27 616.512 1283.84 602.064 1211.73 508.8C1511.51 553.776 1767.17 687.168 1920 835.2V787.2C1800.79 706.608 1686.7 615.696 1525.33 558C1363.97 500.352 1126.23 494.112 1006.93 403.2C1065.13 463.872 1150.55 508.704 1222.23 565.296C1293.91 621.888 1379.41 660.384 1492.65 691.584C1605.89 722.784 1607.25 811.92 1700.27 853.2C1793.37 894.432 1862.31 951.6 1920 1008Z" fill="#040404" stroke="black"/>
<path d="M1920 528V513.6C1902.51 507.12 1886.21 500.64 1868.8 494.4C1878.53 485.424 1904.04 491.472 1920 489.6V470.4C1798.66 471.264 1687.21 446.4 1587.2 412.8C1677.74 469.104 1815.81 483.168 1920 528Z" fill="#040404" stroke="black"/>
<path d="M0 456C162.56 428.4 286.464 498.48 326.229 574.896C365.909 651.312 491.264 681.072 556.629 747.696C621.995 814.32 638.208 896.832 699.733 964.8C680.875 890.304 669.099 791.328 579.584 725.184C490.069 659.04 373.845 626.832 349.269 537.936C324.693 449.088 143.019 418.464 0 417.6V456Z" fill="#050505" stroke="black"/>
<path d="M554.667 667.2C589.653 688.512 634.624 706.176 665.6 729.6C803.755 834.096 715.349 990.72 904.533 1080H972.8C909.397 1044.43 816.384 1012.37 819.2 955.2C822.016 898.032 811.691 820.272 784.384 768.384C757.163 716.448 697.429 685.296 629.333 649.2C561.237 613.056 541.013 565.968 458.667 538.8C376.32 511.632 377.429 444.144 290.133 427.2C345.6 464.88 341.163 521.52 416 553.2C490.837 584.88 500.224 628.416 554.667 667.2Z" fill="#030303" stroke="black"/>
<path d="M691.2 657.6C595.115 583.68 535.808 487.2 392.533 436.8C440.235 523.824 602.197 587.136 691.2 657.6Z" fill="#090909" stroke="black"/>
<path d="M0 489.6C136.875 484.848 241.835 545.904 256 619.2C169.131 577.248 128.853 514.224 0 513.6V532.8C131.328 552.432 180.309 618.96 283.733 670.8C387.157 722.64 439.979 808.896 435.2 888C430.421 967.104 586.496 1012.42 631.467 1080H691.2C497.323 996.288 530.773 839.712 412.245 737.712C293.632 635.76 270.677 461.856 0 470.4V489.6Z" fill="#030303" stroke="black"/>
<path d="M0 513.6C128.853 514.224 169.131 577.248 256 619.2C241.835 545.904 136.875 484.848 0 489.6V513.6Z" fill="#ECECEC" stroke="black"/>
<path d="M776.533 528C754.688 516.624 729.856 501.744 708.267 489.6C729.003 503.232 750.848 516.624 776.533 528Z" fill="#727272" stroke="black"/>
<path d="M1920 513.6V489.6C1904.04 491.472 1878.53 485.424 1868.8 494.4C1886.21 500.64 1902.51 507.12 1920 513.6Z" fill="#CECECE" stroke="black"/>
<path d="M1920 945.6V916.8C1743.62 799.824 1610.24 663.648 1382.4 571.2C1633.88 621.504 1762.13 760.224 1920 868.8V835.2C1767.17 687.168 1511.51 553.776 1211.73 508.8C1283.84 602.064 1519.27 616.512 1597.7 709.296C1676.12 802.128 1790.55 873.312 1920 945.6ZM1373.87 566.4C1354.92 563.952 1332.91 556.896 1322.67 547.2C1342.81 548.4 1365.33 555.312 1373.87 566.4Z" fill="#EAEAEA" stroke="black"/>
<path d="M0 552C121.429 579.552 175.019 638.064 245.504 697.104C315.989 756.144 359.68 837.552 369.749 910.416C379.819 983.28 474.197 1036.22 571.733 1080H631.467C586.496 1012.42 430.421 967.104 435.2 888C439.979 808.896 387.157 722.64 283.733 670.8C180.309 618.96 131.328 552.432 0 532.8V552Z" fill="#F1F1F1" stroke="black"/>
<path d="M1373.87 566.4C1365.33 555.312 1342.81 548.4 1322.67 547.2C1332.91 556.896 1354.92 563.952 1373.87 566.4Z" fill="#737373" stroke="black"/>
<path d="M0 585.6C88.9173 623.568 136.021 672 206.933 723.6C277.76 775.248 327.851 849.792 307.2 921.6C286.549 993.408 401.408 1037.33 486.4 1080H571.733C474.197 1036.22 379.819 983.28 369.749 910.416C359.68 837.552 315.989 756.144 245.504 697.104C175.019 638.064 121.429 579.552 0 552V585.6Z" fill="#030303" stroke="black"/>
<path d="M1920 916.8V868.8C1762.13 760.224 1633.88 621.504 1382.4 571.2C1610.24 663.648 1743.62 799.824 1920 916.8Z" fill="#040404" stroke="black"/>
<path d="M0 638.4C112.811 719.952 317.781 793.68 273.067 912C250.795 861.408 218.027 812.88 171.349 767.616C124.672 722.4 39.0827 704.976 0 657.6V710.4C187.733 774.384 209.579 912.144 298.667 1012.8C179.712 935.952 153.941 823.968 0 758.4V792C50.7733 826.944 98.9013 867.36 136.533 907.2C88.2347 886.8 45.824 862.08 0 840V868.8C64.256 906.816 151.381 926.544 194.133 975.6C236.971 1024.61 338.859 1041.94 401.067 1080H486.4C401.408 1037.33 286.549 993.408 307.2 921.6C327.851 849.792 277.76 775.248 206.933 723.6C136.021 672 88.9173 623.568 0 585.6V638.4Z" fill="#EFEFEF" stroke="black"/>
<path d="M0 657.6C39.0827 704.976 124.672 722.4 171.349 767.616C218.027 812.88 250.795 861.408 273.067 912C317.781 793.68 112.811 719.952 0 638.4V657.6Z" fill="#090909" stroke="black"/>
<path d="M742.4 1080H793.6C715.349 1039.78 667.733 994.8 631.381 940.848C595.115 886.896 568.491 819.888 544.171 764.304C519.851 708.72 384.256 696.384 358.4 643.2C401.749 721.152 530.688 782.448 538.197 868.464C545.707 954.48 653.483 1015.39 742.4 1080Z" fill="#040404" stroke="black"/>
<path d="M1920 753.6V710.4C1886.63 678.768 1833.13 654.144 1766.4 648C1820.59 681.984 1857.88 723.696 1920 753.6Z" fill="#030303" stroke="black"/>
<path d="M665.6 729.6C634.624 706.176 589.653 688.512 554.667 667.2C586.667 690 631.893 707.856 665.6 729.6Z" fill="#7B7B7B" stroke="black"/>
<path d="M1271.47 1080H1339.73C1252.18 975.936 1227.35 859.68 1126.4 758.4C1207.04 818.16 1359.02 838.944 1397.59 913.056C1436.07 987.216 1520.3 1048.08 1646.93 1080H1783.47C1615.1 1041.46 1505.71 967.824 1435.73 877.2C1365.85 786.528 1177.69 748.896 1041.07 705.6C1175.98 819.648 1151.57 963.696 1271.47 1080Z" fill="#020202" stroke="black"/>
<path d="M0 758.4C153.941 823.968 179.712 935.952 298.667 1012.8C209.579 912.144 187.733 774.384 0 710.4V758.4Z" fill="#050505" stroke="black"/>
<path d="M1092.27 1080H1186.13C891.904 1038.48 1042.77 821.088 878.933 724.8C987.477 837.168 852.821 1005.17 1092.27 1080Z" fill="#040404" stroke="black"/>
<path d="M1339.73 1080H1442.13C1300.31 1024.27 1333.42 915.36 1228.8 844.8C1319.77 873.072 1353.98 922.608 1380.52 975.456C1406.98 1028.35 1492.22 1071.6 1587.2 1080H1646.93C1520.3 1048.08 1436.07 987.216 1397.59 913.056C1359.02 838.944 1207.04 818.16 1126.4 758.4C1227.35 859.68 1252.18 975.936 1339.73 1080Z" fill="white" stroke="black"/>
<path d="M0 840C45.824 862.08 88.2347 886.8 136.533 907.2C98.9013 867.36 50.7733 826.944 0 792V840Z" fill="#050505" stroke="black"/>
<path d="M844.8 1080H861.867C722.261 1002.38 770.048 880.656 674.133 792C735.573 888.144 687.189 1007.09 844.8 1080Z" fill="#0B0B0B" stroke="black"/>
<path d="M1442.13 1080H1587.2C1492.22 1071.6 1406.98 1028.35 1380.52 975.456C1353.98 922.608 1319.77 873.072 1228.8 844.8C1333.42 915.36 1300.31 1024.27 1442.13 1080Z" fill="#040404" stroke="black"/>
<path d="M0 926.4C75.264 990.864 202.24 1028.74 298.667 1080H401.067C338.859 1041.94 236.971 1024.61 194.133 975.6C151.381 926.544 64.256 906.816 0 868.8V926.4Z" fill="#030303" stroke="black"/>
<path d="M0 955.2C43.6053 1002 105.216 1051.1 187.733 1080H298.667C202.24 1028.74 75.264 990.864 0 926.4V955.2Z" fill="#F1F1F1" stroke="black"/>
<path d="M0 1012.8C32 1038.43 84.9067 1055.38 119.467 1080H187.733C105.216 1051.1 43.6053 1002 0 955.2V1012.8Z" fill="#060606" stroke="black"/>
<path d="M0 1051.2C19.456 1058.74 38.9973 1068.82 51.2 1080H119.467C84.9067 1055.38 32 1038.43 0 1012.8V1051.2Z" fill="#F0F0F0" stroke="black"/>
<path d="M0 1080H51.2C38.9973 1068.82 19.456 1058.74 0 1051.2V1080Z" fill="#0A0A0A" stroke="black"/>
</g>
<defs>
<clipPath id="clip0_21_645">
<rect width="1920" height="1080" fill="white"/>
</clipPath>
</defs>
</svg>
